<svg height="340" width="440" xmlns="http://www.w3.org/2000/svg">
<path d="M 266 221 420 180" stroke="black" stroke-width="1"/>
<path d="M 250 292 266 221" stroke="black" stroke-width="1"/>
<path d="M 250 292 266 320" stroke="black" stroke-width="1"/>
<path d="M 250 292 135 287" stroke="black" stroke-width="1"/>
<path d="M 173 317 266 221" stroke="black" stroke-width="1"/>
<path d="M 173 317 266 320" stroke="black" stroke-width="1"/>
<path d="M 173 317 135 287" stroke="black" stroke-width="1"/>
<path d="M 266 320 266 221" stroke="black" stroke-width="1"/>
<path d="M 266 320 250 292" stroke="black" stroke-width="1"/>
<path d="M 266 320 173 317" stroke="black" stroke-width="1"/>
<path d="M 396 203 266 221" stroke="black" stroke-width="1"/>
<path d="M 396 203 420 180" stroke="black" stroke-width="1"/>
<path d="M 335 210 296 161" stroke="black" stroke-width="1"/>
<path d="M 396 203 243 148" stroke="black" stroke-width="1"/>
<path d="M 296 125 266 221" stroke="black" stroke-width="1"/>
<path d="M 296 125 243 148" stroke="black" stroke-width="1"/>
<path d="M 150 93 243 148" stroke="black" stroke-width="1"/>
<path d="M 135 287 266 221" stroke="black" stroke-width="1"/>
<path d="M 135 287 250 292" stroke="black" stroke-width="1"/>
<path d="M 135 287 173 317" stroke="black" stroke-width="1"/>
<path d="M 20 237 266 221" stroke="black" stroke-width="1"/>
<path d="M 389 267 266 221" stroke="black" stroke-width="1"/>
<path d="M 389 267 335 210" stroke="black" stroke-width="1"/>
<path d="M 296 161 266 221" stroke="black" stroke-width="1"/>
<path d="M 296 161 420 180" stroke="black" stroke-width="1"/>
<path d="M 396 203 335 210" stroke="black" stroke-width="1"/>
<path d="M 335 210 389 267" stroke="black" stroke-width="1"/>
<path d="M 335 210 396 203" stroke="black" stroke-width="1"/>
<path d="M 335 210 243 148" stroke="black" stroke-width="1"/>
<path d="M 266 221 243 148" stroke="black" stroke-width="1"/>
<path d="M 266 221 335 210" stroke="black" stroke-width="1"/>
<path d="M 266 221 250 292" stroke="black" stroke-width="1"/>
<path d="M 266 221 173 317" stroke="black" stroke-width="1"/>
<path d="M 266 221 266 320" stroke="black" stroke-width="1"/>
<path d="M 266 221 396 203" stroke="black" stroke-width="1"/>
<path d="M 266 221 296 125" stroke="black" stroke-width="1"/>
<path d="M 266 221 135 287" stroke="black" stroke-width="1"/>
<path d="M 266 221 20 237" stroke="black" stroke-width="1"/>
<path d="M 266 221 389 267" stroke="black" stroke-width="1"/>
<path d="M 266 221 296 161" stroke="black" stroke-width="1"/>
<path d="M 420 180 266 221" stroke="black" stroke-width="1"/>
<path d="M 420 180 243 148" stroke="black" stroke-width="1"/>
<path d="M 420 180 335 210" stroke="black" stroke-width="1"/>
<path d="M 420 180 396 203" stroke="black" stroke-width="1"/>
<path d="M 420 180 296 161" stroke="black" stroke-width="1"/>
<path d="M 243 148 266 221" stroke="black" stroke-width="1"/>
<path d="M 243 148 420 180" stroke="black" stroke-width="1"/>
<path d="M 243 148 335 210" stroke="black" stroke-width="1"/>
<path d="M 243 148 396 203" stroke="black" stroke-width="1"/>
<path d="M 243 148 296 125" stroke="black" stroke-width="1"/>
<path d="M 243 148 150 93" stroke="black" stroke-width="1"/>
<path d="M 243 148 296 161" stroke="black" stroke-width="1"/>
<path d="M 335 210 266 221" stroke="black" stroke-width="1"/>
<path d="M 335 210 420 180" stroke="black" stroke-width="1"/>
<path d="M 296 161 243 148" stroke="black" stroke-width="1"/>
<path d="M 296 161 335 210" stroke="black" stroke-width="1"/>
<circle cx="266" cy="221" r="7.0" style="fill:blue;stroke:black;stroke-width:1.0"/>
<circle cx="420" cy="180" r="7.0" style="fill:blue;stroke:black;stroke-width:1.0"/>
<circle cx="243" cy="148" r="7.0" style="fill:blue;stroke:black;stroke-width:1.0"/>
<circle cx="335" cy="210" r="7.0" style="fill:blue;stroke:black;stroke-width:1.0"/>
<circle cx="250" cy="292" r="7.0" style="fill:blue;stroke:black;stroke-width:1.0"/>
<circle cx="173" cy="317" r="7.0" style="fill:blue;stroke:black;stroke-width:1.0"/>
<circle cx="266" cy="320" r="7.0" style="fill:blue;stroke:black;stroke-width:1.0"/>
<circle cx="396" cy="203" r="7.0" style="fill:blue;stroke:black;stroke-width:1.0"/>
<circle cx="296" cy="125" r="7.0" style="fill:blue;stroke:black;stroke-width:1.0"/>
<circle cx="150" cy="93" r="7.0" style="fill:blue;stroke:black;stroke-width:1.0"/>
<circle cx="135" cy="287" r="7.0" style="fill:blue;stroke:black;stroke-width:1.0"/>
<circle cx="20" cy="237" r="7.0" style="fill:blue;stroke:black;stroke-width:1.0"/>
<circle cx="389" cy="267" r="7.0" style="fill:blue;stroke:black;stroke-width:1.0"/>
<circle cx="296" cy="161" r="7.0" style="fill:blue;stroke:black;stroke-width:1.0"/>
<circle cx="412" cy="20" r="7.0" style="fill:red;stroke:black;stroke-width:1.0"/>
</svg>